<svg width="22" height="22" viewBox="0 0 22 22" fill="none" xmlns="http://www.w3.org/2000/svg">
<path fill-rule="evenodd" clip-rule="evenodd" d="M11 0C17.0746 0 22 4.92545 22 11C22 17.0746 17.0746 22 11 22C4.92545 22 0 17.0746 0 11C0 4.92545 4.92545 0 11 0ZM14.1415 6.74796C14.1409 6.74813 14.1405 6.7484 14.1394 6.74941L11 9.88883L7.86058 6.74941C7.85955 6.7484 7.85911 6.74813 7.85852 6.74796C7.85796 6.74779 7.85736 6.74779 7.8568 6.74796C7.85626 6.74813 7.85579 6.7484 7.85479 6.74941L6.74938 7.85479C6.7484 7.85577 6.74816 7.85626 6.74796 7.85682C6.74779 7.85738 6.74779 7.85798 6.74796 7.85854L6.74821 7.85908C6.74853 7.85963 6.74894 7.86013 6.74941 7.86056L9.88883 11L6.74941 14.1395C6.7484 14.1405 6.74813 14.1409 6.74796 14.1415C6.74779 14.1421 6.74779 14.1427 6.74796 14.1432C6.74813 14.1438 6.7484 14.1442 6.74941 14.1452L7.85479 15.2506C7.85577 15.2516 7.85626 15.2519 7.85682 15.2521C7.85738 15.2522 7.85798 15.2522 7.85854 15.2521C7.85908 15.2519 7.85955 15.2516 7.86056 15.2506L11 12.1111L14.1395 15.2506C14.1405 15.2516 14.1409 15.2519 14.1415 15.252C14.1421 15.2522 14.1427 15.2522 14.1432 15.252C14.1438 15.2519 14.1442 15.2516 14.1452 15.2506L15.2506 14.1452C15.2516 14.1442 15.2519 14.1437 15.2521 14.1432C15.2522 14.1426 15.2522 14.142 15.2521 14.1415L15.2518 14.1409C15.2515 14.1404 15.2511 14.1399 15.2506 14.1394L12.1111 11L15.2506 7.86058C15.2516 7.85955 15.2519 7.85911 15.252 7.85852C15.2522 7.85796 15.2522 7.85736 15.252 7.8568C15.2519 7.85626 15.2516 7.85579 15.2506 7.85479L14.1452 6.74938C14.1447 6.74874 14.144 6.74825 14.1432 6.74796C14.1426 6.74779 14.142 6.74779 14.1415 6.74796Z" fill="white"/>
</svg>
