<svg width="18" height="18" viewBox="0 0 18 18" fill="none" xmlns="http://www.w3.org/2000/svg">
<path d="M2.25 3.75H5.25M15.75 3.75H8.25M2.25 9H11.25M15.75 9H14.25M2.25 14.25H3.75M15.75 14.25H6.75" stroke="#595959" stroke-width="2" stroke-linecap="round"/>
<path d="M6.75 5.25C7.57843 5.25 8.25 4.57843 8.25 3.75C8.25 2.92157 7.57843 2.25 6.75 2.25C5.92157 2.25 5.25 2.92157 5.25 3.75C5.25 4.57843 5.92157 5.25 6.75 5.25Z" stroke="#595959" stroke-width="2" stroke-linecap="round"/>
<path d="M12.75 10.5C13.5784 10.5 14.25 9.82843 14.25 9C14.25 8.17157 13.5784 7.5 12.75 7.5C11.9216 7.5 11.25 8.17157 11.25 9C11.25 9.82843 11.9216 10.5 12.75 10.5Z" stroke="#595959" stroke-width="2" stroke-linecap="round"/>
<path d="M5.25 15.75C6.07843 15.75 6.75 15.0784 6.75 14.25C6.75 13.4216 6.07843 12.75 5.25 12.75C4.42157 12.75 3.75 13.4216 3.75 14.25C3.75 15.0784 4.42157 15.75 5.25 15.75Z" stroke="#595959" stroke-width="2" stroke-linecap="round"/>
</svg>
