<svg width="355" height="284" viewBox="0 0 355 284" fill="none" xmlns="http://www.w3.org/2000/svg">
<g clip-path="url(#clip0_27_384)">
<path d="M26.625 26.625H75.4375C82.8148 26.625 88.75 20.6898 88.75 13.3125C88.75 5.93516 82.8148 0 75.4375 0H17.75C7.93203 0 0 7.93203 0 17.75V75.4375C0 82.8148 5.93516 88.75 13.3125 88.75C20.6898 88.75 26.625 82.8148 26.625 75.4375V26.625ZM97.5141 124.25C101.011 124.25 104.473 123.561 107.703 122.223C110.933 120.885 113.868 118.924 116.341 116.452C118.813 113.979 120.774 111.044 122.112 107.814C123.45 104.584 124.139 101.121 124.139 97.625C124.139 94.1286 123.45 90.6663 122.112 87.4361C120.774 84.2058 118.813 81.2706 116.341 78.7983C113.868 76.3259 110.933 74.3647 107.703 73.0267C104.473 71.6887 101.011 71 97.5141 71C94.0176 71 90.5554 71.6887 87.3251 73.0267C84.0948 74.3647 81.1597 76.3259 78.6873 78.7983C76.215 81.2706 74.2538 84.2058 72.9158 87.4361C71.5777 90.6663 70.8891 94.1286 70.8891 97.625C70.8891 101.121 71.5777 104.584 72.9158 107.814C74.2538 111.044 76.215 113.979 78.6873 116.452C81.1597 118.924 84.0948 120.885 87.3251 122.223C90.5554 123.561 94.0176 124.25 97.5141 124.25ZM82.8148 142C66.507 142 53.25 155.257 53.25 171.565C53.25 179.719 59.8508 186.375 68.0602 186.375H99.1781C103.616 167.46 117.372 152.151 135.344 145.55C131.184 143.276 126.358 142 121.31 142H82.8148ZM286.94 186.375C295.094 186.375 301.75 179.774 301.75 171.565C301.75 155.202 288.493 142 272.185 142H233.69C228.587 142 223.816 143.276 219.656 145.55C237.628 152.151 251.384 167.46 255.822 186.375H286.94ZM237.351 186.375C232.58 172.896 220.766 162.745 206.344 160.305C204.18 159.916 201.962 159.75 199.688 159.75H155.312C153.038 159.75 150.82 159.916 148.656 160.305C134.234 162.745 122.42 172.896 117.649 186.375C116.152 190.535 115.375 195.028 115.375 199.688C115.375 207.065 121.31 213 128.688 213H226.312C233.69 213 239.625 207.065 239.625 199.688C239.625 195.028 238.848 190.535 237.351 186.375ZM257.375 124.25C260.871 124.25 264.334 123.561 267.564 122.223C270.794 120.885 273.729 118.924 276.202 116.452C278.674 113.979 280.635 111.044 281.973 107.814C283.311 104.584 284 101.121 284 97.625C284 94.1286 283.311 90.6663 281.973 87.4361C280.635 84.2058 278.674 81.2706 276.202 78.7983C273.729 76.3259 270.794 74.3647 267.564 73.0267C264.334 71.6887 260.871 71 257.375 71C253.879 71 250.416 71.6887 247.186 73.0267C243.956 74.3647 241.021 76.3259 238.548 78.7983C236.076 81.2706 234.115 84.2058 232.777 87.4361C231.439 90.6663 230.75 94.1286 230.75 97.625C230.75 101.121 231.439 104.584 232.777 107.814C234.115 111.044 236.076 113.979 238.548 116.452C241.021 118.924 243.956 120.885 247.186 122.223C250.416 123.561 253.879 124.25 257.375 124.25ZM213 106.5C213 97.0848 209.26 88.0553 202.602 81.3977C195.945 74.7402 186.915 71 177.5 71C168.085 71 159.055 74.7402 152.398 81.3977C145.74 88.0553 142 97.0848 142 106.5C142 115.915 145.74 124.945 152.398 131.602C159.055 138.26 168.085 142 177.5 142C186.915 142 195.945 138.26 202.602 131.602C209.26 124.945 213 115.915 213 106.5ZM279.562 26.625H328.375V75.4375C328.375 82.8148 334.31 88.75 341.688 88.75C349.065 88.75 355 82.8148 355 75.4375V17.75C355 7.93203 347.068 0 337.25 0H279.562C272.185 0 266.25 5.93516 266.25 13.3125C266.25 20.6898 272.185 26.625 279.562 26.625ZM26.625 257.375V208.562C26.625 201.185 20.6898 195.25 13.3125 195.25C5.93516 195.25 0 201.185 0 208.562V266.25C0 276.068 7.93203 284 17.75 284H75.4375C82.8148 284 88.75 278.065 88.75 270.688C88.75 263.31 82.8148 257.375 75.4375 257.375H26.625ZM279.562 257.375C272.185 257.375 266.25 263.31 266.25 270.688C266.25 278.065 272.185 284 279.562 284H337.25C347.068 284 355 276.068 355 266.25V208.562C355 201.185 349.065 195.25 341.688 195.25C334.31 195.25 328.375 201.185 328.375 208.562V257.375H279.562Z" fill="#363A42"/>
</g>
<defs>
<clipPath id="clip0_27_384">
<rect width="355" height="284" fill="white"/>
</clipPath>
</defs>
</svg>
