<svg width="20" height="20" viewBox="0 0 20 20" fill="none" xmlns="http://www.w3.org/2000/svg">
<path d="M16.25 6.25H3.75C3.41858 6.25033 3.10083 6.38213 2.86648 6.61648C2.63213 6.85083 2.50033 7.16858 2.5 7.5V16.25C2.50033 16.5814 2.63213 16.8992 2.86648 17.1335C3.10083 17.3679 3.41858 17.4997 3.75 17.5H16.25C16.5814 17.4997 16.8992 17.3679 17.1335 17.1335C17.3679 16.8992 17.4997 16.5814 17.5 16.25V7.5C17.4997 7.16858 17.3679 6.85083 17.1335 6.61648C16.8992 6.38213 16.5814 6.25033 16.25 6.25ZM8.125 14.375V9.375L12.5 11.875L8.125 14.375ZM3.75 3.75H16.25V5H3.75V3.75ZM5 1.25H15V2.5H5V1.25Z" fill="#595959"/>
</svg>
