<svg width="15" height="15" viewBox="0 0 15 15" fill="none" xmlns="http://www.w3.org/2000/svg">
<path d="M4.375 13.125H10.625C11.288 13.125 11.9239 12.8616 12.3928 12.3928C12.8616 11.9239 13.125 11.288 13.125 10.625V4.63375C13.125 4.468 13.0591 4.30906 12.9419 4.19187L10.8081 2.05812C10.6909 1.94091 10.532 1.87504 10.3663 1.875H4.375C3.71196 1.875 3.07607 2.13839 2.60723 2.60723C2.13839 3.07607 1.875 3.71196 1.875 4.375V10.625C1.875 11.288 2.13839 11.9239 2.60723 12.3928C3.07607 12.8616 3.71196 13.125 4.375 13.125Z" stroke="#363A42" stroke-linecap="round" stroke-linejoin="round"/>
<path d="M10.625 13.125V8.75C10.625 8.58424 10.5592 8.42527 10.4419 8.30806C10.3247 8.19085 10.1658 8.125 10 8.125H5C4.83424 8.125 4.67527 8.19085 4.55806 8.30806C4.44085 8.42527 4.375 8.58424 4.375 8.75V13.125M5.625 1.875H9.375V3.75C9.375 3.91576 9.30915 4.07473 9.19194 4.19194C9.07473 4.30915 8.91576 4.375 8.75 4.375H6.25C6.08424 4.375 5.92527 4.30915 5.80806 4.19194C5.69085 4.07473 5.625 3.91576 5.625 3.75V1.875Z" stroke="#363A42"/>
<path d="M6.875 10.625H8.125" stroke="#363A42" stroke-linecap="round"/>
</svg>
