<svg width="18" height="18" viewBox="0 0 18 18" fill="none" xmlns="http://www.w3.org/2000/svg">
<path d="M9.00883 6.86599C8.48324 6.86599 7.99105 7.0699 7.6184 7.44255C7.2475 7.81521 7.04183 8.3074 7.04183 8.83298C7.04183 9.35857 7.2475 9.85076 7.6184 10.2234C7.99105 10.5943 8.48324 10.8 9.00883 10.8C9.53441 10.8 10.0266 10.5943 10.3993 10.2234C10.7702 9.85076 10.9758 9.35857 10.9758 8.83298C10.9758 8.3074 10.7702 7.81521 10.3993 7.44255C10.2172 7.25914 10.0006 7.11372 9.7619 7.01474C9.52321 6.91576 9.26723 6.8652 9.00883 6.86599ZM16.2563 11.0056L15.1067 10.023C15.1612 9.68904 15.1893 9.34802 15.1893 9.00877C15.1893 8.66951 15.1612 8.32673 15.1067 7.99451L16.2563 7.01189C16.3431 6.93755 16.4053 6.83853 16.4345 6.728C16.4637 6.61747 16.4586 6.50068 16.4198 6.39314L16.4039 6.34744C16.0876 5.46271 15.6135 4.64263 15.0047 3.92693L14.9731 3.89001C14.8992 3.80309 14.8006 3.74061 14.6905 3.7108C14.5804 3.68099 14.4638 3.68525 14.3561 3.72302L12.9287 4.23103C12.4014 3.79861 11.8143 3.45759 11.178 3.22029L10.902 1.72791C10.8812 1.61548 10.8266 1.51205 10.7456 1.43136C10.6646 1.35067 10.561 1.29653 10.4485 1.27615L10.401 1.26736C9.48695 1.10212 8.52367 1.10212 7.60961 1.26736L7.56215 1.27615C7.44964 1.29653 7.346 1.35067 7.265 1.43136C7.18399 1.51205 7.12945 1.61548 7.10863 1.72791L6.8309 3.22732C6.2006 3.46652 5.61343 3.80671 5.09242 4.23455L3.65453 3.72302C3.54689 3.68495 3.43022 3.68054 3.32001 3.71037C3.2098 3.74019 3.11128 3.80285 3.03754 3.89001L3.0059 3.92693C2.39821 4.6434 1.92427 5.46327 1.60668 6.34744L1.59086 6.39314C1.51176 6.61287 1.5768 6.85896 1.75434 7.01189L2.91801 8.00505C2.86352 8.33552 2.83715 8.67302 2.83715 9.00701C2.83715 9.34451 2.86352 9.68201 2.91801 10.009L1.75785 11.0021C1.67101 11.0765 1.60885 11.1755 1.57965 11.286C1.55045 11.3965 1.55559 11.5133 1.59437 11.6209L1.6102 11.6666C1.92836 12.5508 2.39769 13.3681 3.00941 14.0871L3.04105 14.124C3.11498 14.2109 3.2135 14.2734 3.32364 14.3032C3.43379 14.333 3.55037 14.3288 3.65805 14.291L5.09594 13.7795C5.61976 14.2101 6.20336 14.5511 6.83441 14.7867L7.11215 16.2861C7.13297 16.3985 7.18751 16.502 7.26851 16.5827C7.34952 16.6633 7.45316 16.7175 7.56566 16.7379L7.61312 16.7467C8.53618 16.9128 9.48148 16.9128 10.4045 16.7467L10.452 16.7379C10.5645 16.7175 10.6681 16.6633 10.7491 16.5827C10.8301 16.502 10.8847 16.3985 10.9055 16.2861L11.1815 14.7937C11.8178 14.5547 12.4049 14.2154 12.9323 13.783L14.3596 14.291C14.4672 14.3291 14.5839 14.3335 14.6941 14.3036C14.8043 14.2738 14.9029 14.2112 14.9766 14.124L15.0082 14.0871C15.62 13.3646 16.0893 12.5508 16.4075 11.6666L16.4233 11.6209C16.4989 11.4029 16.4338 11.1586 16.2563 11.0056ZM9.00883 11.9232C7.30199 11.9232 5.91859 10.5398 5.91859 8.83298C5.91859 7.12615 7.30199 5.74275 9.00883 5.74275C10.7157 5.74275 12.0991 7.12615 12.0991 8.83298C12.0991 10.5398 10.7157 11.9232 9.00883 11.9232Z" fill="#C8C8C8"/>
</svg>
