<svg width="12" height="12" viewBox="0 0 12 12" fill="none" xmlns="http://www.w3.org/2000/svg">
<g clip-path="url(#clip0_168_693)">
<path d="M1 3H11M5 5.5V8M7 5.5V8M2 3H10L9.21 10.11C9.18292 10.3547 9.06653 10.5808 8.88313 10.745C8.69972 10.9092 8.46218 11 8.216 11H3.784C3.53782 11 3.30028 10.9092 3.11687 10.745C2.93347 10.5808 2.81708 10.3547 2.79 10.11L2 3ZM3.6725 1.5735C3.75338 1.40198 3.88135 1.257 4.0415 1.15546C4.20165 1.05391 4.38737 0.999998 4.577 1H7.423C7.61271 0.999903 7.79854 1.05377 7.95879 1.15532C8.11903 1.25687 8.24709 1.40191 8.328 1.5735L9 3H3L3.6725 1.5735Z" stroke="#620002" stroke-linecap="round" stroke-linejoin="round"/>
</g>
<defs>
<clipPath id="clip0_168_693">
<rect width="12" height="12" fill="white"/>
</clipPath>
</defs>
</svg>
