<svg width="20" height="20" viewBox="0 0 20 20" fill="none" xmlns="http://www.w3.org/2000/svg">
<path d="M16.3076 9.31498L5.47423 1.81497C5.3492 1.72847 5.2029 1.67781 5.05115 1.66849C4.89941 1.65917 4.748 1.69154 4.61333 1.76209C4.47866 1.83264 4.36586 1.93869 4.28714 2.06876C4.20842 2.19882 4.16678 2.34794 4.16673 2.49998V17.5C4.16662 17.6521 4.20815 17.8013 4.28681 17.9315C4.36548 18.0617 4.47827 18.1678 4.61296 18.2385C4.74766 18.3092 4.89913 18.3416 5.05094 18.3323C5.20276 18.323 5.34915 18.2724 5.47423 18.1858L16.3076 10.6858C16.4179 10.6088 16.5081 10.5062 16.5703 10.3869C16.6325 10.2676 16.665 10.135 16.665 10.0004C16.665 9.8658 16.6325 9.73321 16.5703 9.61387C16.5081 9.49454 16.4179 9.392 16.3076 9.31498Z" fill="#595959"/>
</svg>
