<svg width="256" height="256" viewBox="0 0 256 256" fill="none" xmlns="http://www.w3.org/2000/svg">
<rect width="256" height="256" rx="30" fill="white"/>
<g clip-path="url(#clip0_301_52)">
<path d="M43 63H70.5C74.6563 63 78 59.6563 78 55.5C78 51.3437 74.6563 48 70.5 48H38C32.4687 48 28 52.4687 28 58V90.5C28 94.6563 31.3437 98 35.5 98C39.6563 98 43 94.6563 43 90.5V63ZM82.9375 118C84.9073 118 86.8579 117.612 88.6778 116.858C90.4976 116.104 92.1512 114.999 93.5441 113.607C94.937 112.214 96.0419 110.56 96.7957 108.74C97.5495 106.92 97.9375 104.97 97.9375 103C97.9375 101.03 97.5495 99.0796 96.7957 97.2597C96.0419 95.4399 94.937 93.7863 93.5441 92.3934C92.1512 91.0005 90.4976 89.8956 88.6778 89.1418C86.8579 88.388 84.9073 88 82.9375 88C80.9677 88 79.0171 88.388 77.1972 89.1418C75.3774 89.8956 73.7238 91.0005 72.3309 92.3934C70.938 93.7863 69.8331 95.4399 69.0793 97.2597C68.3255 99.0796 67.9375 101.03 67.9375 103C67.9375 104.97 68.3255 106.92 69.0793 108.74C69.8331 110.56 70.938 112.214 72.3309 113.607C73.7238 114.999 75.3774 116.104 77.1972 116.858C79.0171 117.612 80.9677 118 82.9375 118ZM74.6563 128C65.4688 128 58 135.469 58 144.656C58 149.25 61.7187 153 66.3437 153H83.875C86.375 142.344 94.125 133.719 104.25 130C101.906 128.719 99.1875 128 96.3437 128H74.6563ZM189.656 153C194.25 153 198 149.281 198 144.656C198 135.437 190.531 128 181.344 128H159.656C156.781 128 154.094 128.719 151.75 130C161.875 133.719 169.625 142.344 172.125 153H189.656ZM161.719 153C159.031 145.406 152.375 139.688 144.25 138.312C143.031 138.094 141.781 138 140.5 138H115.5C114.219 138 112.969 138.094 111.75 138.312C103.625 139.688 96.9688 145.406 94.2813 153C93.4375 155.344 93 157.875 93 160.5C93 164.656 96.3437 168 100.5 168H155.5C159.656 168 163 164.656 163 160.5C163 157.875 162.562 155.344 161.719 153ZM173 118C174.97 118 176.92 117.612 178.74 116.858C180.56 116.104 182.214 114.999 183.607 113.607C184.999 112.214 186.104 110.56 186.858 108.74C187.612 106.92 188 104.97 188 103C188 101.03 187.612 99.0796 186.858 97.2597C186.104 95.4399 184.999 93.7863 183.607 92.3934C182.214 91.0005 180.56 89.8956 178.74 89.1418C176.92 88.388 174.97 88 173 88C171.03 88 169.08 88.388 167.26 89.1418C165.44 89.8956 163.786 91.0005 162.393 92.3934C161.001 93.7863 159.896 95.4399 159.142 97.2597C158.388 99.0796 158 101.03 158 103C158 104.97 158.388 106.92 159.142 108.74C159.896 110.56 161.001 112.214 162.393 113.607C163.786 114.999 165.44 116.104 167.26 116.858C169.08 117.612 171.03 118 173 118ZM148 108C148 102.696 145.893 97.6086 142.142 93.8579C138.391 90.1071 133.304 88 128 88C122.696 88 117.609 90.1071 113.858 93.8579C110.107 97.6086 108 102.696 108 108C108 113.304 110.107 118.391 113.858 122.142C117.609 125.893 122.696 128 128 128C133.304 128 138.391 125.893 142.142 122.142C145.893 118.391 148 113.304 148 108ZM185.5 63H213V90.5C213 94.6563 216.344 98 220.5 98C224.656 98 228 94.6563 228 90.5V58C228 52.4687 223.531 48 218 48H185.5C181.344 48 178 51.3437 178 55.5C178 59.6563 181.344 63 185.5 63ZM43 193V165.5C43 161.344 39.6563 158 35.5 158C31.3437 158 28 161.344 28 165.5V198C28 203.531 32.4687 208 38 208H70.5C74.6563 208 78 204.656 78 200.5C78 196.344 74.6563 193 70.5 193H43ZM185.5 193C181.344 193 178 196.344 178 200.5C178 204.656 181.344 208 185.5 208H218C223.531 208 228 203.531 228 198V165.5C228 161.344 224.656 158 220.5 158C216.344 158 213 161.344 213 165.5V193H185.5Z" fill="#363A42"/>
</g>
<defs>
<clipPath id="clip0_301_52">
<rect width="200" height="160" fill="white" transform="translate(28 48)"/>
</clipPath>
</defs>
</svg>
